<mxfile host="65bd71144e">
    <diagram id="cIF2esaKYnkqIEk28z96" name="Page-1">
        <mxGraphModel dx="983" dy="499" grid="1" gridSize="10" guides="1" tooltips="1" connect="1" arrows="1" fold="1" page="1" pageScale="1" pageWidth="827" pageHeight="1169" math="0" shadow="0">
            <root>
                <mxCell id="0"/>
                <mxCell id="1" parent="0"/>
                <mxCell id="2" value="C" style="swimlane;fillColor=#5BB6FC;" parent="1" vertex="1">
                    <mxGeometry x="260" y="10" width="390" height="350" as="geometry"/>
                </mxCell>
                <mxCell id="43" style="edgeStyle=none;html=1;" parent="2" source="3" target="42" edge="1">
                    <mxGeometry relative="1" as="geometry"/>
                </mxCell>
                <mxCell id="3" value="" style="sketch=0;outlineConnect=0;fontColor=#232F3E;gradientColor=none;fillColor=#5BB6FC;strokeColor=none;dashed=0;verticalLabelPosition=bottom;verticalAlign=top;align=center;html=1;fontSize=12;fontStyle=0;aspect=fixed;pointerEvents=1;shape=mxgraph.aws4.waf_bot;" parent="2" vertex="1">
                    <mxGeometry x="20" y="140" width="40" height="40" as="geometry"/>
                </mxCell>
                <mxCell id="5" value="&lt;h1 style=&quot;line-height: 26%;&quot;&gt;&lt;font style=&quot;font-size: 15px;&quot;&gt;Prompt&lt;/font&gt;&lt;/h1&gt;&lt;p style=&quot;line-height: 0%;&quot;&gt;What is&lt;/p&gt;" style="text;html=1;strokeColor=none;fillColor=none;spacing=5;spacingTop=-20;whiteSpace=wrap;overflow=hidden;rounded=0;" parent="2" vertex="1">
                    <mxGeometry x="70" y="150" width="90" height="50" as="geometry"/>
                </mxCell>
                <mxCell id="6" value="" style="aspect=fixed;html=1;points=[];align=center;image;fontSize=12;image=img/lib/azure2/other/Worker_Container_App.svg;fillColor=#5BB6FC;" parent="2" vertex="1">
                    <mxGeometry x="-10" y="-10" width="43.27" height="42" as="geometry"/>
                </mxCell>
                <mxCell id="31" value="&lt;div style=&quot;font-family: Consolas, Courier, monospace; padding: 5px 10px; border-left: 5px solid rgb(208, 209, 208); border-radius: 6px; background: rgb(249, 249, 249); word-break: break-word; font-size: 14px; margin-bottom: 10px; text-align: left;&quot; class=&quot;rd_code&quot;&gt;&lt;div style=&quot;&quot; data-priority=&quot;&quot; class=&quot;&quot; id=&quot;rd_code_9&quot;&gt;&lt;div style=&quot;&quot; class=&quot;rd_cCodeBg&quot;&gt;&lt;div style=&quot;padding-left: 0px;&quot;&gt;&lt;font color=&quot;#0000ff&quot;&gt;The answer is 42&lt;/font&gt;&lt;/div&gt;&lt;/div&gt;&lt;/div&gt;&lt;/div&gt;&lt;div style=&quot;margin-bottom: 10px; color: rgb(68, 68, 68); font-family: Roboto, Helvetica, sans-serif; font-size: 14px; text-align: left; background-color: rgb(255, 255, 255);&quot;&gt;&lt;span style=&quot;line-height: 20px; color: rgb(102, 102, 102);&quot; class=&quot;rd_cntnt_snip&quot;&gt;&lt;/span&gt;&lt;/div&gt;" style="text;strokeColor=none;align=center;fillColor=none;html=1;verticalAlign=middle;whiteSpace=wrap;rounded=0;" parent="2" vertex="1">
                    <mxGeometry x="-30" y="230" width="260" height="90" as="geometry"/>
                </mxCell>
                <mxCell id="55" style="edgeStyle=none;html=1;" parent="2" source="41" target="54" edge="1">
                    <mxGeometry relative="1" as="geometry"/>
                </mxCell>
                <mxCell id="41" value="Rewrite" style="sketch=0;outlineConnect=0;fontColor=#232F3E;gradientColor=none;fillColor=#5BB6FC;strokeColor=none;dashed=0;verticalLabelPosition=top;verticalAlign=bottom;align=center;html=1;fontSize=12;fontStyle=0;aspect=fixed;pointerEvents=1;shape=mxgraph.aws4.waf_bot;labelPosition=center;" parent="2" vertex="1">
                    <mxGeometry x="210" y="172" width="40" height="40" as="geometry"/>
                </mxCell>
                <mxCell id="44" style="edgeStyle=none;html=1;" parent="2" source="42" target="61" edge="1">
                    <mxGeometry relative="1" as="geometry"/>
                </mxCell>
                <mxCell id="42" value="Generate" style="sketch=0;outlineConnect=0;fontColor=#232F3E;gradientColor=none;fillColor=#5BB6FC;strokeColor=none;dashed=0;verticalLabelPosition=middle;verticalAlign=middle;align=left;html=1;fontSize=12;fontStyle=0;aspect=fixed;pointerEvents=1;shape=mxgraph.aws4.waf_bot;labelPosition=right;" parent="2" vertex="1">
                    <mxGeometry x="210" y="70" width="40" height="40" as="geometry"/>
                </mxCell>
                <mxCell id="54" value="Execute" style="sketch=0;outlineConnect=0;fontColor=#232F3E;gradientColor=none;fillColor=#5BB6FC;strokeColor=none;dashed=0;verticalLabelPosition=middle;verticalAlign=middle;align=left;html=1;fontSize=12;fontStyle=0;aspect=fixed;pointerEvents=1;shape=mxgraph.aws4.waf_bot;labelPosition=right;" parent="2" vertex="1">
                    <mxGeometry x="210" y="270" width="40" height="40" as="geometry"/>
                </mxCell>
                <mxCell id="39" value="Retrieve schema" style="shape=image;verticalLabelPosition=middle;verticalAlign=middle;imageAspect=1;aspect=fixed;image=data:image/svg+xml,PHN2ZyB4bWxucz0iaHR0cDovL3d3dy53My5vcmcvMjAwMC9zdmciIHZpZXdCb3g9IjAgMCA0OCA0OSI+PHBhdGggZD0iTTQ0LjUwNSA0Mi4yNjRINi42NDVsMTguMjIyLTI5LjU1IDE5LjYzOCAyOS41NXptLTMzLjMzOS0yLjUyN0gzOS43OWwtMTQuODQ2LTIyLjM0LTEzLjc3NyAyMi4zNHoiIGZpbGw9IiM1MEU2RkYiLz48cGF0aCBkPSJNNi42NTYgNi44MTVMNS43MTQgOS4xNmwxOC45NTEgNy42MTEuOTQyLTIuMzQ0LTE4Ljk1MS03LjYxeiIgZmlsbD0iIzUwRTZGRiIvPjxwYXRoIGQ9Ik02LjM0MSAxMy4xOTRhNC45NzcgNC45NzcgMCAxMDAtOS45NTMgNC45NzcgNC45NzcgMCAwMDAgOS45NTN6bTE4LjkyMiA3LjQ2MWE0Ljk3NyA0Ljk3NyAwIDEwMC05Ljk1MyA0Ljk3NyA0Ljk3NyAwIDAwMCA5Ljk1M3pNOC44MzQgNDYuMjEzYTQuOTc3IDQuOTc3IDAgMTAwLTkuOTUzIDQuOTc3IDQuOTc3IDAgMDAwIDkuOTUzem0zMi44MjUgMGE0Ljk3NyA0Ljk3NyAwIDEwMC05Ljk1MyA0Ljk3NyA0Ljk3NyAwIDAwMCA5Ljk1M3oiIGZpbGw9IiMwMDc4RDQiLz48L3N2Zz4=;labelPosition=right;align=left;" parent="2" vertex="1">
                    <mxGeometry x="310" y="30" width="40" height="40" as="geometry"/>
                </mxCell>
                <mxCell id="62" style="edgeStyle=none;html=1;" edge="1" parent="2" source="61" target="41">
                    <mxGeometry relative="1" as="geometry"/>
                </mxCell>
                <mxCell id="61" value="Correct" style="sketch=0;outlineConnect=0;fontColor=#232F3E;gradientColor=none;fillColor=#5BB6FC;strokeColor=none;dashed=0;verticalLabelPosition=bottom;verticalAlign=top;align=center;html=1;fontSize=12;fontStyle=0;aspect=fixed;pointerEvents=1;shape=mxgraph.aws4.waf_bot;labelPosition=center;" vertex="1" parent="2">
                    <mxGeometry x="310" y="172" width="40" height="40" as="geometry"/>
                </mxCell>
                <mxCell id="23" style="edgeStyle=none;html=1;" parent="1" source="7" edge="1">
                    <mxGeometry relative="1" as="geometry">
                        <mxPoint x="150" y="165" as="targetPoint"/>
                    </mxGeometry>
                </mxCell>
                <mxCell id="7" value="User" style="verticalLabelPosition=bottom;html=1;verticalAlign=top;align=center;strokeColor=none;fillColor=#00BEF2;shape=mxgraph.azure.user;" parent="1" vertex="1">
                    <mxGeometry x="40" y="140" width="47.5" height="50" as="geometry"/>
                </mxCell>
                <mxCell id="40" style="edgeStyle=none;html=1;" parent="1" source="56" target="42" edge="1">
                    <mxGeometry relative="1" as="geometry">
                        <mxPoint x="630" y="60" as="targetPoint"/>
                    </mxGeometry>
                </mxCell>
                <mxCell id="8" value="" style="verticalLabelPosition=bottom;html=1;verticalAlign=top;align=center;strokeColor=none;fillColor=#00BEF2;shape=mxgraph.azure.sql_database_sql_azure;" parent="1" vertex="1">
                    <mxGeometry x="710" y="160" width="47.5" height="50" as="geometry"/>
                </mxCell>
                <mxCell id="22" value="UI" style="shadow=0;dashed=0;html=1;strokeColor=none;fillColor=#4495D1;labelPosition=center;verticalLabelPosition=bottom;verticalAlign=top;align=center;outlineConnect=0;shape=mxgraph.veeam.interface;" parent="1" vertex="1">
                    <mxGeometry x="160" y="147.6" width="50" height="42.4" as="geometry"/>
                </mxCell>
                <mxCell id="24" value="Question&lt;br&gt;" style="whiteSpace=wrap;html=1;shape=mxgraph.basic.cloud_callout" parent="1" vertex="1">
                    <mxGeometry x="88" y="80" width="90" height="60" as="geometry"/>
                </mxCell>
                <mxCell id="64" style="edgeStyle=none;html=1;entryX=0.35;entryY=0.66;entryDx=0;entryDy=0;entryPerimeter=0;" edge="1" parent="1" source="27" target="8">
                    <mxGeometry relative="1" as="geometry"/>
                </mxCell>
                <mxCell id="27" value="&lt;div style=&quot;font-family: Consolas, Courier, monospace; padding: 5px 10px; border-left: 5px solid rgb(208, 209, 208); border-radius: 6px; background: rgb(249, 249, 249); word-break: break-word; font-size: 14px; margin-bottom: 10px; color: rgb(68, 68, 68); text-align: left;&quot; class=&quot;rd_code&quot;&gt;&lt;div data-priority=&quot;&quot; class=&quot;&quot; id=&quot;rd_code_9&quot;&gt;&lt;div class=&quot;rd_cCodeBg&quot;&gt;&lt;div style=&quot;padding-left: 0px;&quot;&gt;&lt;span style=&quot;color: rgb(0, 0, 255);&quot; class=&quot;rd_code_blu&quot;&gt;SELECT&lt;/span&gt;&amp;nbsp;CustomerName, City&amp;nbsp;&lt;span style=&quot;color: rgb(0, 0, 255);&quot; class=&quot;rd_code_blu&quot;&gt;FROM&lt;/span&gt;&amp;nbsp;Customers;&lt;/div&gt;&lt;div&gt;&lt;br&gt;&lt;/div&gt;&lt;/div&gt;&lt;/div&gt;&lt;/div&gt;&lt;div style=&quot;margin-bottom: 10px; color: rgb(68, 68, 68); font-family: Roboto, Helvetica, sans-serif; font-size: 14px; text-align: left; background-color: rgb(255, 255, 255);&quot;&gt;&lt;span style=&quot;line-height: 20px; color: rgb(102, 102, 102);&quot; class=&quot;rd_cntnt_snip&quot;&gt;&lt;/span&gt;&lt;/div&gt;" style="text;strokeColor=none;align=center;fillColor=none;html=1;verticalAlign=middle;whiteSpace=wrap;rounded=0;" parent="1" vertex="1">
                    <mxGeometry x="570" y="330" width="260" height="30" as="geometry"/>
                </mxCell>
                <mxCell id="38" style="edgeStyle=none;html=1;" parent="1" edge="1">
                    <mxGeometry relative="1" as="geometry">
                        <mxPoint x="320" y="200" as="targetPoint"/>
                        <mxPoint x="460" y="289.090909090909" as="sourcePoint"/>
                    </mxGeometry>
                </mxCell>
                <mxCell id="56" value="AI Search" style="sketch=0;aspect=fixed;html=1;points=[];align=center;image;fontSize=12;image=img/lib/mscae/Search.svg;" vertex="1" parent="1">
                    <mxGeometry x="710" y="30" width="50" height="50" as="geometry"/>
                </mxCell>
                <mxCell id="58" value="Generate" style="edgeStyle=none;html=1;entryX=-0.029;entryY=0.38;entryDx=0;entryDy=0;entryPerimeter=0;" edge="1" parent="1" source="42" target="8">
                    <mxGeometry relative="1" as="geometry"/>
                </mxCell>
                <mxCell id="63" value="" style="edgeStyle=none;html=1;entryX=0;entryY=0.25;entryDx=0;entryDy=0;" edge="1" parent="1" source="54" target="27">
                    <mxGeometry relative="1" as="geometry"/>
                </mxCell>
            </root>
        </mxGraphModel>
    </diagram>
</mxfile>